<svg width="38" height="225" viewBox="0 0 38 225" fill="none" xmlns="http://www.w3.org/2000/svg">
<path d="M25.3423 158.553C23.7033 167.164 21.5 175.628 19.5781 184.237C17.6617 192.28 14.7555 200.313 12.8391 208.356C12.7787 207.295 12.5768 206.232 12.3736 205.311C11.6348 201.273 11.1788 197.238 9.44738 193.473C7.43586 189.423 0.77158 191.197 0.940611 195.654C1.03962 200.039 2.76695 204.228 3.99864 208.483C5.23033 212.737 6.39065 217.062 7.55095 221.387C8.438 224.719 12.4594 225.677 14.8854 223.438C18.8091 219.869 21.8954 215.161 24.9775 210.878C27.9182 206.593 30.9304 202.237 32.3938 197.16C33.2696 194.34 29.6106 192.466 27.5416 194.355C23.9034 197.644 21.1068 201.647 18.0988 205.578C19.8382 201.211 21.3662 196.771 22.9641 192.402C25.5052 185.567 27.8349 178.66 29.6717 171.535C33.3466 157.145 36.1771 142.323 37.3106 127.484C39.424 99.0772 36.6633 70.1284 27.5912 43.0279C22.7126 28.343 16.498 12.8672 5.86131 1.30863C4.25077 -0.333374 1.96761 1.76596 2.79832 3.61256C9.92591 19.7336 18.1944 34.8757 22.9798 51.8933C27.6951 68.8396 30.0709 86.3996 30.3256 103.939C30.5733 122.186 28.7685 140.625 25.3423 158.553Z" fill="#231F20"/>
</svg>
